<svg xmlns="http://www.w3.org/2000/svg" width="128" height="128" viewBox="0 0 128 128">
  <title>FOOD CART</title>
  <g>
    <path d="M109,58.75A5.258,5.258,0,0,1,103.75,64H75.22l-9.74-6.27a3.524,3.524,0,0,0-1.93-.57,3.586,3.586,0,0,0-1.95,6.6l.37.24H24.25a5.25,5.25,0,0,1,0-10.5h79.5A5.249,5.249,0,0,1,109,58.75Z" fill="#f7963e"/>
    <path d="M100.45,88.77l-1.61,12.09A9.392,9.392,0,0,1,89.53,109H38.47a9.392,9.392,0,0,1-9.31-8.14L24.25,64H61.97L82.64,77.31l6.59,4.24Z" fill="#ffad5a"/>
    <polygon points="103.75 64 101.5 80.92 75.22 64 103.75 64" fill="#ffad5a"/>
    <path d="M108.72,89.83a3.578,3.578,0,0,1-4.95,1.08l-3.32-2.14L89.23,81.55l-6.59-4.24L61.97,64l-.37-.24a3.586,3.586,0,0,1,1.95-6.6,3.524,3.524,0,0,1,1.93.57L75.22,64,101.5,80.92l6.15,3.96A3.585,3.585,0,0,1,108.72,89.83Z" fill="#f9d16e"/>
    <polygon points="58.39 53.5 33.65 53.5 29.63 33.69 53.4 28.87 56.31 43.23 58.39 53.5" fill="#4f9da6"/>
    <path d="M78.98,34.42l-1.04,3.17L72.71,53.5H58.39L56.31,43.23l4.82-14.67a9.394,9.394,0,1,1,17.85,5.86Z" fill="#f9d16e"/>
    <path d="M98.5,46.56v5.47a8.927,8.927,0,0,1-.13,1.47H72.71l5.23-15.91H89.53A8.975,8.975,0,0,1,98.5,46.56Z" fill="#ff5959"/>
    <path d="M72.333,39.34a1.73,1.73,0,0,1-.608-.11l-8.333-3.089a1.75,1.75,0,1,1,1.216-3.282l8.333,3.09a1.75,1.75,0,0,1-.608,3.391Z" fill="#fff8e3"/>
    <path d="M69.417,48.333a1.727,1.727,0,0,1-.554-.09l-8.25-2.75a1.75,1.75,0,1,1,1.107-3.32l8.251,2.75a1.75,1.75,0,0,1-.554,3.41Z" fill="#fff8e3"/>
    <rect x="60.425" y="73.667" width="7.15" height="26.333" rx="3.575" fill="#f7963e"/>
    <path d="M45.1,99.873h0a3.555,3.555,0,0,1-4.035-2.864L38.177,77.588a3.415,3.415,0,0,1,3.047-3.795h0a3.555,3.555,0,0,1,4.035,2.865l2.884,19.421A3.413,3.413,0,0,1,45.1,99.873Z" fill="#f7963e"/>
    <path d="M89.23,81.55,86.94,97.01a3.552,3.552,0,0,1-4.04,2.86,3.408,3.408,0,0,1-3.04-3.79l2.78-18.77Z" fill="#f7963e"/>
  </g>
</svg>
